
		<svg width="2844.652965892678" height="3212.6719858358483" xmlns="http://www.w3.org/2000/svg" xmlns:xlink="http://www.w3.org/1999/xlink" version="1.1">
			<g transform="scale(10.633599291792422) translate(10, 10)">
				<g id="SvgjsG1008" fill="#d60c0c" transform="translate(0.0025247365701943636, 0.15556499361991882) scale(4.989724166225446)" rel="inversefill" name="filled_container" xmlns:name="filledContainer_inversefill">   <title xmlns="http://www.w3.org/2000/svg">Untitled-1</title>   <path xmlns="http://www.w3.org/2000/svg" d="M23.11,55.78L1.69,43.41A3.39,3.39,0,0,1,0,40.48V15.75a3.39,3.39,0,0,1,1.69-2.94L23.11,0.45a3.39,3.39,0,0,1,3.39,0L47.91,12.82a3.39,3.39,0,0,1,1.69,2.94V40.48a3.39,3.39,0,0,1-1.69,2.94L26.5,55.78A3.39,3.39,0,0,1,23.11,55.78Z" fill="#d60c0c" style="fill: #d60c0c;"/> </g><g id="main_text" rel="mainfill" name="main_text" xmlns:name="mainText_mainfill" fill="#ffffff" transform="translate(69.22176917447727, 182.96030322067946)"><path fill="#ffffff" d="M12.784 20.026000000000003 l-3.502 0 l0 10.574 l3.502 0 c3.4 0 5.338 -1.938 5.338 -5.338 c0 -3.434 -1.938 -5.236 -5.338 -5.236 z M3.434 20.026000000000003 l-1.564 -3.502 l10.914 0 c5.304 0 8.908 3.06 8.908 8.67 c0 5.474 -3.536 8.942 -8.908 8.942 l-7.174 0 l0 -14.11 l-2.176 0 z M36.346000000000004 34.68 l-0.068 0 c-4.896 0 -8.466 -2.278 -8.466 -7.446 l0 -10.71 l3.502 0 l0 10.71 c0 2.992 2.006 3.91 4.998 3.91 s4.998 -0.918 4.998 -3.91 l0 -10.71 l3.502 0 l0 10.71 c0 5.168 -3.57 7.446 -8.466 7.446 z M66.436 20.026000000000003 l-6.63 0 l0 14.11 l-3.502 0 l0 -14.11 l-6.392 0 l0 -3.502 l16.524 0 l0 3.502 z M84.42200000000001 34.136 l-14.586 0 l0 -3.536 l9.282 -10.574 l-8.942 0 l0 -3.502 l13.566 0 l0 3.502 l-9.282 10.574 l9.962 0 l0 3.536 z M98.736 34.68 l-0.068 0 c-4.896 0 -8.466 -2.278 -8.466 -7.446 l0 -10.71 l3.502 0 l0 10.71 c0 2.992 2.006 3.91 4.998 3.91 s4.998 -0.918 4.998 -3.91 l0 -10.71 l3.502 0 l0 10.71 c0 5.168 -3.57 7.446 -8.466 7.446 z" style="fill: #ffffff;"/></g><defs id="SvgjsDefs1002"/><g id="SvgjsG1010" fill="#ffffff" rel="mainfill" name="symbol" xmlns:name="symbol_mainfill" transform="translate(57.09110160722417, 57.817634814510846) scale(1.3333333333333333)"><symbol xmlns="http://www.w3.org/2000/svg" viewbox="-9.858 -9.858 19.716 19.716"><path fill="#d60c0c" stroke="#d60c0c" stroke-width="2.5699" stroke-miterlimit="10" d="M8.573,0c0-4.735-3.838-8.573-8.573-8.573   S-8.573-4.735-8.573,0c0,4.735,3.838,8.573,8.573,8.573S8.573,4.735,8.573,0z"/><path fill="#d60c0c" stroke="#d60c0c" stroke-width="2.5699" stroke-miterlimit="10" d="M2.858,0c0-1.578-1.279-2.858-2.858-2.858   c-1.578,0-2.858,1.279-2.858,2.858c0,1.578,1.279,2.858,2.858,2.858C1.578,2.858,2.858,1.578,2.858,0z"/></symbol><symbol xmlns="http://www.w3.org/2000/svg" viewbox="-5.525 -16.49 11.051 32.981"><path fill="#d60c0c" stroke="#d60c0c" stroke-width="2" stroke-miterlimit="10" d="M4.526-15.49h-9.051v30.981h1.559   c4.138,0,7.492-3.354,7.492-7.492V-15.49z"/></symbol><g xmlns="http://www.w3.org/2000/svg" display="none"><rect x="-962.374" y="-653.377" display="inline" fill="#d60c0c" width="1328.934" height="1233.377"/></g><g xmlns="http://www.w3.org/2000/svg"><path d="M61.332,95h18.06v-8.85C64.857,85.181,52.834,75.674,49.13,63.013c-12.205-0.301-22.818-6.614-28.522-15.863v7.124   C20.607,76.73,38.877,95,61.332,95z"/><path d="M79.393,81.248V47.271c-5.208,8.357-14.431,14.293-25.207,15.519C57.667,72.853,67.524,80.335,79.393,81.248z"/><path d="M50.031,22.75c2.913-6.856,8.98-11.754,16.143-13.246C61.558,6.661,56.006,5,50.038,5c-5.964,0-11.511,1.659-16.126,4.497   c4.247,0.886,8.159,2.984,11.312,6.138C47.268,17.677,48.902,20.112,50.031,22.75z"/><path d="M28.361,13.943c-4.554,4.694-7.328,10.869-7.328,17.628c0,14.652,13.011,26.572,29.005,26.572   c15.992,0,29.003-11.92,29.003-26.572c0-6.755-2.77-12.926-7.319-17.619c-0.315-0.017-0.628-0.046-0.946-0.046   c-7.608,0-14.339,4.861-16.751,12.097c-0.599,1.799-0.903,3.669-0.903,5.558v9.095h-1.278h-3.613h-1.278v-9.095   c0-1.89-0.305-3.759-0.904-5.557c-0.859-2.578-2.341-4.968-4.283-6.91c-3.345-3.346-7.773-5.188-12.467-5.188   C28.984,13.906,28.673,13.927,28.361,13.943z M66.202,26.243c2.938,0,5.328,2.39,5.328,5.328S69.14,36.9,66.202,36.9   s-5.328-2.391-5.328-5.329S63.265,26.243,66.202,26.243z M33.798,26.243c2.938,0,5.328,2.39,5.328,5.328S36.735,36.9,33.798,36.9   c-2.938,0-5.328-2.391-5.328-5.329S30.86,26.243,33.798,26.243z"/><circle cx="33.798" cy="31.572" r="1.66"/><circle cx="66.202" cy="31.572" r="1.66"/></g></g>
			</g>
		</svg>
	